<?xml version="1.0" standalone="no"?>
<!DOCTYPE svg PUBLIC "-//W3C//DTD SVG 20010904//EN"
 "http://www.w3.org/TR/2001/REC-SVG-20010904/DTD/svg10.dtd">
<svg version="1.0" xmlns="http://www.w3.org/2000/svg"
 width="308.000000pt" height="308.000000pt" viewBox="0 0 308.000000 308.000000"
 preserveAspectRatio="xMidYMid meet">
<metadata>
Created by potrace 1.11, written by Peter Selinger 2001-2013
</metadata>
<g transform="translate(0.000000,308.000000) scale(0.100000,-0.100000)"
fill="#000000" stroke="none">
<path d="M1399 3075 c-2 -1 -26 -6 -54 -9 -27 -4 -61 -9 -75 -11 -14 -3 -36
-7 -49 -10 -13 -2 -49 -12 -80 -21 -31 -9 -60 -17 -66 -19 -5 -1 -19 -6 -30
-10 -11 -5 -42 -17 -69 -27 -472 -182 -839 -624 -935 -1128 -6 -30 -13 -68
-17 -85 -11 -52 -13 -338 -3 -400 5 -33 11 -71 13 -85 19 -124 81 -303 151
-436 367 -699 1180 -1008 1915 -727 503 192 873 643 965 1177 8 49 15 94 15
100 0 8 -131 11 -497 11 l-497 0 -22 -56 c-32 -78 -95 -165 -157 -217 -52 -43
-151 -100 -184 -105 -10 -1 -23 -6 -30 -10 -7 -4 -56 -10 -110 -14 -169 -9
-308 43 -425 159 -154 155 -203 375 -130 581 53 147 175 272 322 328 70 26
118 34 215 33 218 -3 408 -134 495 -341 l28 -67 484 -1 c265 0 488 1 495 3 13
4 10 57 -8 142 -5 25 -11 55 -14 67 -5 28 -35 132 -46 158 -95 237 -199 403
-347 554 -137 140 -255 227 -424 312 -119 60 -308 120 -453 144 -43 7 -370 16
-376 10z"/>
<path d="M1460 1777 c-49 -16 -133 -102 -148 -153 -47 -160 59 -317 220 -328
74 -4 134 19 188 74 158 157 50 423 -170 419 -30 -1 -71 -6 -90 -12z"/>
</g>
</svg>
